<svg width="24" height="24" viewBox="0 0 24 24" fill="none" xmlns="http://www.w3.org/2000/svg">
<path fill-rule="evenodd" clip-rule="evenodd" d="M6.271 2.112C5.461 2.218 5.033 2.413 4.727 2.712C4.422 3.012 4.223 3.432 4.114 4.225C4.002 5.042 4 6.124 4 7.675V16.245C4.39598 15.9746 4.83533 15.7741 5.299 15.652C5.827 15.513 6.443 15.513 7.346 15.514H20V7.676C20 6.124 19.998 5.042 19.886 4.225C19.777 3.432 19.578 3.012 19.273 2.712C18.967 2.413 18.539 2.218 17.729 2.112C16.895 2.002 15.791 2 14.207 2H9.793C8.209 2 7.105 2.002 6.271 2.112ZM6.759 6.595C6.759 6.147 7.129 5.784 7.586 5.784H16.414C16.631 5.78213 16.8398 5.86633 16.9948 6.01815C17.1498 6.16997 17.2384 6.37704 17.241 6.594C17.2386 6.81113 17.1502 7.01846 16.9952 7.17049C16.8401 7.32253 16.6311 7.40687 16.414 7.405H7.586C7.36903 7.40687 7.16017 7.32267 7.00516 7.17085C6.85016 7.01903 6.76164 6.81196 6.759 6.595ZM7.586 9.568C7.36903 9.56613 7.16017 9.65033 7.00516 9.80215C6.85016 9.95397 6.76164 10.161 6.759 10.378C6.759 10.826 7.129 11.189 7.586 11.189H13.103C13.3201 11.1911 13.5293 11.1071 13.6845 10.9552C13.8397 10.8034 13.9284 10.5961 13.931 10.379C13.9286 10.1617 13.8401 9.95422 13.6848 9.80215C13.5296 9.65008 13.3203 9.56587 13.103 9.568H7.586Z" fill="black"/>
<path d="M7.47425 17.1328H20.0012C19.9982 18.2628 19.9802 19.1068 19.8882 19.7728C19.7792 20.5658 19.5802 20.9858 19.2752 21.2858C18.9692 21.5848 18.5412 21.7798 17.7312 21.8858C16.8972 21.9958 15.7932 21.9978 14.2092 21.9978H9.79425C8.21025 21.9978 7.10625 21.9958 6.27225 21.8868C5.46225 21.7798 5.03425 21.5848 4.72825 21.2858C4.42325 20.9858 4.22425 20.5658 4.11525 19.7728C4.07425 19.4728 4.04725 19.1358 4.03125 18.7528C4.16832 18.3782 4.39441 18.0426 4.69004 17.7749C4.98567 17.5071 5.34198 17.3152 5.72825 17.2158C6.01825 17.1398 6.39525 17.1328 7.47425 17.1328Z" fill="black"/>
</svg>
